<?xml version="1.0" standalone="no"?>
<!DOCTYPE svg PUBLIC "-//W3C//DTD SVG 20010904//EN"
 "http://www.w3.org/TR/2001/REC-SVG-20010904/DTD/svg10.dtd">
<svg version="1.0" xmlns="http://www.w3.org/2000/svg"
 width="600.000000pt" height="70.000000pt" viewBox="0 0 600.000000 600.000000"
 preserveAspectRatio="xMidYMid meet">
<metadata>
Created by potrace 1.14, written by Peter Selinger 2001-2017
</metadata>
<g transform="translate(0.000000,600.000000) scale(0.100000,-0.100000)"
fill="#000000" stroke="none">
<path d="M0 3000 l0 -3000 3000 0 3000 0 0 3000 0 3000 -3000 0 -3000 0 0
-3000z m4120 1380 l0 -160 23 5 c12 2 51 9 87 15 36 6 78 13 93 16 l28 6 -3
-99 -3 -98 -112 -19 -113 -19 0 -258 c0 -217 3 -265 17 -300 21 -53 59 -71
123 -59 72 14 110 12 110 -5 0 -31 -40 -93 -92 -144 -74 -73 -180 -123 -274
-129 -123 -8 -193 29 -241 125 l-28 58 -3 322 -4 322 -49 -6 -49 -6 0 96 0 95
50 7 49 7 3 81 3 81 185 113 c101 62 188 113 192 113 4 0 8 -72 8 -160z m-572
-627 c-4 -438 -3 -444 86 -507 17 -12 18 -17 7 -44 -7 -17 -35 -52 -62 -77
-149 -139 -346 -113 -403 52 l-13 37 -32 -58 c-44 -76 -124 -156 -186 -186
-74 -36 -183 -35 -246 2 -127 74 -199 242 -200 459 0 342 169 600 404 617 86
6 142 -14 201 -74 48 -47 55 -44 50 21 -2 22 -1 45 3 51 7 10 314 71 371 73
l23 1 -3 -367z m-1267 129 c60 -26 113 -74 147 -131 24 -41 27 -56 27 -136 0
-78 -4 -97 -28 -147 -68 -138 -247 -233 -479 -254 l-77 -7 14 -28 c21 -40 72
-75 129 -90 89 -22 242 23 357 106 27 19 56 35 64 35 56 0 -58 -198 -172 -300
-112 -99 -244 -146 -383 -137 -114 7 -182 37 -261 116 -100 101 -139 199 -139
351 0 297 197 553 484 631 94 25 249 21 317 -9z m2040 -865 c44 -29 75 -77 97
-146 24 -80 24 -319 -2 -416 -26 -100 -87 -223 -141 -283 -120 -133 -339 -172
-470 -82 l-41 28 -43 -49 c-50 -58 -108 -93 -178 -108 -139 -29 -255 58 -299
224 -10 36 -14 132 -14 347 l0 297 53 10 c61 12 229 41 239 41 4 0 8 -145 10
-323 3 -292 5 -326 21 -351 15 -22 25 -27 50 -24 27 2 36 11 55 48 21 43 22
53 22 357 0 197 4 314 10 318 5 3 63 15 127 26 65 10 128 22 141 24 l22 5 0
-307 c0 -294 6 -373 28 -395 16 -16 61 -1 87 28 45 48 60 116 60 264 0 166
-12 214 -71 279 -24 27 -44 56 -44 65 0 25 80 107 125 127 56 26 114 24 156
-4z m-1364 -248 c183 -69 275 -302 213 -543 -91 -358 -462 -524 -680 -306
-169 168 -152 510 35 718 117 130 291 183 432 131z m-784 -103 c41 -17 81 -60
104 -111 14 -33 18 -82 23 -290 6 -278 13 -311 69 -340 17 -8 31 -19 31 -23 0
-5 -13 -28 -28 -53 -75 -117 -224 -147 -307 -62 -56 58 -65 105 -65 349 0 140
-4 222 -12 239 -23 51 -77 21 -107 -60 -19 -51 -21 -77 -21 -326 l0 -269 -22
-10 c-22 -8 -249 -50 -275 -50 -10 0 -12 73 -10 328 2 358 -1 385 -53 422 -25
18 -28 24 -19 48 13 37 73 99 120 123 96 49 204 0 239 -107 l12 -36 30 53 c48
89 123 157 198 180 38 11 58 10 93 -5z"/>
<path d="M3010 3793 c-79 -29 -126 -158 -118 -323 6 -114 31 -181 80 -206 134
-70 239 193 172 433 -21 77 -77 117 -134 96z"/>
<path d="M1985 3660 c-56 -23 -110 -118 -121 -214 l-7 -57 39 6 c49 9 122 40
147 63 11 9 28 34 38 54 50 97 -7 185 -96 148z"/>
<path d="M2731 2552 c-45 -44 -65 -126 -65 -262 1 -129 13 -185 50 -230 44
-52 106 -35 143 38 55 108 53 361 -3 445 -31 46 -85 50 -125 9z"/>
</g>
</svg>
